
<svg version="1.0" xmlns="http://www.w3.org/2000/svg"
 width="224.000000pt" height="224.000000pt" viewBox="0 0 224.000000 224.000000"
 preserveAspectRatio="xMidYMid meet">

<g transform="translate(0.000000,224.000000) scale(0.100000,-0.100000)"
 stroke="none">
<path fill="#0474dc" d="M446 2130 c-116 -30 -233 -130 -289 -247 -30 -63 -32 -76 -32 -173 0
-97 2 -110 32 -173 43 -91 118 -168 206 -212 38 -19 78 -35 88 -35 48 0 49 -4
49 -155 0 -151 -1 -155 -49 -155 -10 0 -50 -16 -88 -35 -88 -44 -163 -121
-206 -212 -30 -63 -32 -76 -32 -173 0 -97 2 -110 32 -173 44 -93 119 -169 212
-215 72 -36 79 -37 181 -37 102 0 109 1 181 37 93 46 168 122 212 215 30 63
32 76 32 173 0 97 -2 110 -32 173 -56 118 -179 222 -289 245 l-39 8 0 149 0
149 39 8 c144 30 287 180 318 334 l11 54 132 0 132 0 11 -56 c26 -127 124
-247 249 -307 63 -30 76 -32 173 -32 97 0 110 2 173 32 93 44 169 119 215 212
36 72 37 79 37 181 0 102 -1 109 -37 181 -46 93 -122 168 -215 212 -63 30 -76
32 -173 32 -97 0 -110 -2 -173 -32 -91 -43 -168 -118 -212 -206 -19 -38 -35
-78 -35 -88 0 -18 -10 -19 -145 -19 -135 0 -145 1 -145 19 0 40 -70 158 -125
210 -81 77 -165 113 -273 117 -48 2 -104 -1 -126 -6z"/>
<path fill="#dc1350" d="M1576 980 c-116 -30 -233 -130 -289 -247 -30 -63 -32 -76 -32 -173 0
-97 2 -110 32 -173 44 -93 119 -169 212 -215 72 -36 79 -37 181 -37 102 0 109
1 181 37 93 46 168 122 212 215 30 63 32 76 32 173 0 97 -2 110 -32 173 -44
92 -119 169 -209 214 -64 31 -84 36 -161 39 -48 2 -105 -1 -127 -6z"/>
</g>
</svg>
